<svg version="1.1" xmlns="http://www.w3.org/2000/svg" xmlns:xlink="http://www.w3.org/1999/xlink" x="0px" y="0px" viewBox="0 0 256 256" enable-background="new 0 0 256 256" xml:space="preserve">
<g><g><g><path fill="#fff" d="M99.2,25.8c-21.9,3-41.8,12.7-57.9,28.2c-16.7,16.2-26.6,35.6-30.5,59.7c-1.1,6.5-1.1,22,0,28.6c3.7,23,12.8,41.6,28.1,57.3c20.1,20.5,45.6,31.3,74.3,31.3c15.4,0,29.4-3.2,44.2-9.9c15.2-7,29.3-10,43.3-9.5c11.5,0.5,19.9,2.8,30,8c6.4,3.3,7.8,3.6,11,2c4.7-2.3,5.6-8.7,1.8-12.3c-2-1.9-11.6-6.6-17.8-8.8c-8.4-2.9-15.2-4-25.9-4.4l-9.4-0.3l2.8-3.5c9.1-11.5,16.6-26.7,19.9-40.9c8-34.2-2.2-70.9-26.7-95.6c-16.6-16.9-37.2-27.2-60.7-30.2C119.2,24.8,105.9,24.9,99.2,25.8z M118.9,51.1c7.9,2,14.8,9.8,16.1,18.4c1.7,11-5.7,22-16.6,24.9c-12.6,3.2-25.4-5.2-27.6-18.4c-1.7-10.1,4.6-20.7,14.5-24.3C109.4,50.1,114.4,49.9,118.9,51.1z M67,88.3c3.9,1.1,7,2.9,10.3,6c10.9,10.8,7.9,28.9-5.9,35.7c-16.1,7.9-34.4-5.4-31.9-23.1C41.2,93.9,54.3,85.1,67,88.3z M170.2,88.5c13.7,3.8,20.5,19.1,14.1,31.7c-1.5,2.9-5.7,7.5-8.3,9c-11.3,6.6-25.8,2.4-31.5-9.2c-4.4-8.9-2.8-18.8,4.1-25.6C154.6,88.4,162.3,86.3,170.2,88.5z M116.2,119.7c3,1.1,5.7,5.1,5.7,8.3c0,2.1-1.4,5-3.1,6.6c-4.7,4.4-12.9,2-14.6-4.4c-1.5-5.5,2.8-11,8.5-11C113.9,119.2,115.5,119.4,116.2,119.7z M88.4,149.3c5.7,1.9,10.3,6.1,13,11.8c1.4,3,1.7,4.1,1.9,7.9c0.3,5.4-0.7,9.2-3.2,13.1c-7.9,12.1-24,14.3-34.3,4.5c-13.4-12.7-6.7-34.8,11.5-38.3C80.3,147.8,85.3,148.2,88.4,149.3z M148.6,148.4c10.5,1.9,18.3,11.2,18.3,21.9c0,6.7-2.1,11.6-6.9,16.3c-8.7,8.3-22,8.3-30.6,0c-8.9-8.4-9.4-22.1-1.3-31.2C133.4,149.7,141,147,148.6,148.4z"/></g></g></g>
</svg>